<?xml version="1.0" standalone="no"?>
<!DOCTYPE svg PUBLIC "-//W3C//DTD SVG 20010904//EN"
 "http://www.w3.org/TR/2001/REC-SVG-20010904/DTD/svg10.dtd">
<svg version="1.0" xmlns="http://www.w3.org/2000/svg"
 width="264.000000pt" height="264.000000pt" viewBox="0 0 264.000000 264.000000"
 preserveAspectRatio="xMidYMid meet">

<g transform="translate(0.000000,264.000000) scale(0.100000,-0.100000)"
fill="#000000" stroke="none">
<path d="M1915 2380 c-147 -23 -435 -91 -532 -126 l-72 -26 -30 21 c-16 12
-41 21 -55 21 -14 0 -26 5 -26 10 0 6 -11 10 -24 10 -26 0 -48 -25 -84 -97
-21 -40 -24 -42 -144 -82 -206 -68 -297 -91 -384 -98 l-84 -6 -40 42 c-51 53
-65 53 -56 0 9 -56 30 -93 79 -140 59 -58 111 -82 174 -80 92 2 229 36 346 86
21 9 21 -1 2 -51 -14 -35 -14 -37 0 -20 8 11 15 23 15 28 0 4 5 8 11 8 8 0 10
-27 6 -92 -4 -73 -17 -132 -60 -278 -31 -102 -65 -223 -77 -270 -20 -81 -38
-110 -67 -110 -17 0 -17 44 1 78 13 26 162 528 168 566 4 29 -17 30 -30 1 -14
-30 -120 -390 -158 -535 -15 -58 -34 -113 -43 -122 -9 -10 -72 -43 -141 -74
-69 -30 -134 -64 -145 -75 -17 -17 -18 -22 -6 -56 7 -21 24 -53 38 -70 30 -41
64 -43 133 -8 27 14 52 25 55 25 10 0 5 -42 -26 -192 -32 -160 -39 -289 -19
-342 15 -41 50 -87 60 -81 5 3 17 -6 26 -20 20 -31 63 -55 99 -55 32 0 33 21
3 63 -21 29 -23 44 -23 142 0 105 20 231 47 295 6 14 15 45 19 70 28 162 51
220 98 244 42 22 167 46 285 56 149 13 155 15 149 42 -3 13 -20 37 -37 55 -17
17 -38 39 -46 49 -14 17 -15 17 -18 1 -3 -13 -14 -17 -48 -17 -57 0 -62 26 -6
33 20 3 -12 3 -73 1 -60 -2 -127 -7 -147 -10 -34 -6 -38 -4 -38 15 0 12 17 74
38 139 22 64 60 187 86 272 60 196 123 359 147 386 23 24 314 114 454 139 50
9 104 20 120 25 33 10 221 42 357 60 77 11 89 10 103 -4 18 -17 25 -19 49 -10
39 15 -42 141 -103 159 -16 5 -21 4 -17 -4 5 -7 -7 -11 -38 -11 -59 0 -72 20
-14 21 40 1 41 2 13 9 -50 13 -144 9 -270 -10z m-37 -42 c-3 -7 -68 -28 -146
-46 -107 -25 -142 -37 -142 -49 0 -13 3 -13 25 1 14 9 30 14 35 11 5 -3 42 4
82 15 222 60 520 78 536 32 2 -8 -12 -12 -50 -12 -134 0 -526 -66 -654 -110
-125 -43 -255 -82 -260 -77 -6 6 6 81 16 96 4 7 22 16 41 21 19 5 95 27 170
49 121 35 302 78 337 80 8 1 12 -5 10 -11z m-808 -243 c-16 -19 -69 -30 -83
-16 -7 7 -5 12 9 16 10 4 33 12 49 19 32 14 45 5 25 -19z m-20 -34 c0 -6 -4
-13 -10 -16 -5 -3 -10 1 -10 9 0 9 5 16 10 16 6 0 10 -4 10 -9z m-60 -617
c-28 -98 -58 -202 -66 -230 -7 -29 -20 -54 -28 -57 -20 -8 -26 2 -17 26 19 50
31 95 31 113 0 11 7 29 15 40 8 10 15 33 15 51 0 17 5 35 10 38 6 3 10 18 10
33 1 32 31 126 56 173 36 67 26 -3 -26 -187z m55 -313 c3 -5 -4 -13 -16 -16
-23 -8 -34 -1 -24 14 8 13 32 14 40 2z m-185 -200 c0 -5 -5 -22 -10 -37 -6
-15 -20 -66 -31 -113 -11 -47 -26 -113 -34 -146 -8 -33 -20 -87 -26 -120 -16
-83 -34 -98 -23 -20 4 33 8 78 9 100 0 22 4 45 8 51 12 21 37 128 37 161 0 19
7 45 16 59 9 13 14 27 11 31 -10 9 12 43 28 43 8 0 15 -4 15 -9z m-75 -68
c-54 -205 -85 -387 -85 -502 0 -79 -2 -92 -14 -82 -8 7 -19 34 -26 61 -13 54
-11 208 3 227 5 7 6 21 2 33 -4 12 -1 28 6 36 7 9 12 29 11 45 -1 16 1 29 6
29 11 0 33 111 26 136 -6 24 35 64 66 64 16 0 17 -4 5 -47z m-56 -595 c1 -5
-3 -8 -9 -8 -5 0 -10 12 -9 28 0 24 1 25 9 7 5 -11 9 -23 9 -27z"/>
<path d="M1558 2243 c7 -3 16 -2 19 1 4 3 -2 6 -13 5 -11 0 -14 -3 -6 -6z"/>
<path d="M1488 2223 c7 -3 16 -2 19 1 4 3 -2 6 -13 5 -11 0 -14 -3 -6 -6z"/>
<path d="M1448 2213 c7 -3 16 -2 19 1 4 3 -2 6 -13 5 -11 0 -14 -3 -6 -6z"/>
</g>
</svg>
